<svg width="17" height="17" viewBox="0 0 17 17" fill="none" xmlns="http://www.w3.org/2000/svg">
<path d="M9.91667 9.91667H15.4167V14.5C15.4167 14.7431 15.3201 14.9763 15.1482 15.1482C14.9763 15.3201 14.7431 15.4167 14.5 15.4167H10.8333C10.5902 15.4167 10.3571 15.3201 10.1852 15.1482C10.0132 14.9763 9.91667 14.7431 9.91667 14.5V9.91667ZM0.75 0.75H6.25V5.33333C6.25 5.57645 6.15342 5.80961 5.98151 5.98151C5.80961 6.15342 5.57645 6.25 5.33333 6.25H1.66667C1.42355 6.25 1.19039 6.15342 1.01849 5.98151C0.846577 5.80961 0.75 5.57645 0.75 5.33333V0.75Z" stroke="#737373" stroke-width="1.5" stroke-linecap="round" stroke-linejoin="round"/>
</svg>
