<svg width="22" height="22" viewBox="0 0 22 22" fill="none" xmlns="http://www.w3.org/2000/svg">
<path d="M15.583 9.16669C17.1018 9.16669 18.333 7.93547 18.333 6.41669C18.333 4.8979 17.1018 3.66669 15.583 3.66669C14.0642 3.66669 12.833 4.8979 12.833 6.41669C12.833 7.93547 14.0642 9.16669 15.583 9.16669Z" stroke="#737373" stroke-width="1.5" stroke-linecap="round" stroke-linejoin="round"/>
<path d="M6.4165 18.3334C7.93529 18.3334 9.1665 17.1022 9.1665 15.5834C9.1665 14.0646 7.93529 12.8334 6.4165 12.8334C4.89772 12.8334 3.6665 14.0646 3.6665 15.5834C3.6665 17.1022 4.89772 18.3334 6.4165 18.3334Z" stroke="#737373" stroke-width="1.5" stroke-linecap="round" stroke-linejoin="round"/>
<path d="M12.8332 12.8334H18.3332V17.4167C18.3332 17.6598 18.2366 17.893 18.0647 18.0649C17.8928 18.2368 17.6596 18.3334 17.4165 18.3334H13.7498C13.5067 18.3334 13.2736 18.2368 13.1017 18.0649C12.9297 17.893 12.8332 17.6598 12.8332 17.4167V12.8334ZM3.6665 3.66669H9.1665V8.25002C9.1665 8.49314 9.06993 8.72629 8.89802 8.8982C8.72611 9.07011 8.49295 9.16669 8.24984 9.16669H4.58317C4.34006 9.16669 4.1069 9.07011 3.93499 8.8982C3.76308 8.72629 3.6665 8.49314 3.6665 8.25002V3.66669Z" stroke="#737373" stroke-width="1.5" stroke-linecap="round" stroke-linejoin="round"/>
</svg>
