<svg width="18" height="18" viewBox="0 0 18 18" fill="none" xmlns="http://www.w3.org/2000/svg">
<path d="M14.25 5.625C15.2855 5.625 16.125 4.78553 16.125 3.75C16.125 2.71447 15.2855 1.875 14.25 1.875C13.2145 1.875 12.375 2.71447 12.375 3.75C12.375 4.78553 13.2145 5.625 14.25 5.625Z" stroke="white" stroke-width="1.5"/>
<path d="M15.9375 7.5V11.4375C15.9375 12.631 15.4634 13.7756 14.6195 14.6195C13.7756 15.4634 12.631 15.9375 11.4375 15.9375H6.5625C5.36903 15.9375 4.22443 15.4634 3.38052 14.6195C2.53661 13.7756 2.0625 12.631 2.0625 11.4375V6.5625C2.0625 5.36903 2.53661 4.22443 3.38052 3.38052C4.22443 2.53661 5.36903 2.0625 6.5625 2.0625H10.5" stroke="white" stroke-width="1.5" stroke-linecap="round"/>
<path d="M6.20703 12.027V8.73603M9.07953 12.027V6.57678M11.793 12.027V7.89453" stroke="white" stroke-width="1.5" stroke-linecap="round"/>
</svg>
