<svg width="32" height="29" viewBox="0 0 32 29" fill="none" xmlns="http://www.w3.org/2000/svg">
<path d="M30.4545 10.8171C30.4526 11.8304 30.1369 12.8182 29.5507 13.6447C28.9646 14.4712 28.1367 15.0959 27.1811 15.4327C26.6584 15.629 26.1044 15.7288 25.546 15.7273C24.5327 15.7254 23.5449 15.4096 22.7184 14.8235C21.8919 14.2373 21.2673 13.4095 20.9304 12.4538C20.7339 11.9306 20.6341 11.376 20.6358 10.8171C20.6406 11.376 20.5403 11.9316 20.3413 12.4538C20.0045 13.4092 19.3801 14.2368 18.5539 14.823C17.7277 15.4091 16.7403 15.725 15.7273 15.7273C14.7143 15.725 13.7268 15.4091 12.9006 14.823C12.0744 14.2368 11.45 13.4092 11.1133 12.4538C10.9168 11.9306 10.817 11.376 10.8187 10.8171C10.8219 11.376 10.7232 11.9316 10.5242 12.4538C10.1873 13.4095 9.56265 14.2373 8.73614 14.8235C7.90963 15.4096 6.92183 15.7254 5.90856 15.7273C5.35131 15.7305 4.79406 15.6317 4.27344 15.4327C3.3178 15.0959 2.48999 14.4712 1.90382 13.6447C1.31765 12.8182 1.00191 11.8304 1 10.8171L1.73557 8.23308L3.50284 3.19237C3.72802 2.55162 4.14657 1.99657 4.70069 1.60386C5.25482 1.21116 5.91719 1.00016 6.59636 1H24.8582C25.5371 1.00049 26.1991 1.21164 26.7529 1.60432C27.3067 1.99701 27.725 2.55187 27.9501 3.19237L29.7174 8.23308L30.4545 10.8171Z" stroke="#737373" stroke-width="2" stroke-linecap="round" stroke-linejoin="round"/>
<path d="M27.1814 15.4327V23.9092C27.181 24.7769 26.8361 25.6088 26.2226 26.2223C25.6091 26.8358 24.7771 27.1807 23.9095 27.1811H7.54394C7.11415 27.1813 6.68852 27.0968 6.29137 26.9325C5.89423 26.7682 5.53336 26.5272 5.22937 26.2234C4.92538 25.9195 4.68424 25.5588 4.51971 25.1617C4.35519 24.7646 4.27051 24.339 4.27051 23.9092V15.4327M10.819 22.2725H20.6361" stroke="#737373" stroke-width="2" stroke-linecap="round" stroke-linejoin="round"/>
</svg>
