<svg width="20" height="20" viewBox="0 0 20 20" fill="none" xmlns="http://www.w3.org/2000/svg">
<path d="M1.66699 10.0001H18.3337M13.3337 10.0001C13.3337 11.0942 13.247 12.1784 13.0795 13.1892C12.9128 14.2001 12.667 15.1184 12.357 15.8926C12.0478 16.6667 11.6803 17.2801 11.2762 17.6992C10.8712 18.1176 10.4378 18.3334 10.0003 18.3334C9.56283 18.3334 9.12949 18.1176 8.72533 17.6992C8.32033 17.2801 7.95283 16.6659 7.64366 15.8926C7.33366 15.1184 7.08783 14.2009 6.92033 13.1892C6.74941 12.1348 6.66469 11.0683 6.66699 10.0001C6.66699 8.90591 6.75283 7.82175 6.92033 6.81091C7.08783 5.80008 7.33366 4.88175 7.64366 4.10758C7.95283 3.33341 8.32033 2.72008 8.72449 2.30091C9.12949 1.88341 9.56283 1.66675 10.0003 1.66675C10.4378 1.66675 10.8712 1.88258 11.2753 2.30091C11.6803 2.72008 12.0478 3.33425 12.357 4.10758C12.667 4.88175 12.9128 5.79925 13.0795 6.81091C13.2478 7.82175 13.3337 8.90591 13.3337 10.0001Z" stroke="#525252" stroke-width="1.2" stroke-linecap="round"/>
<path d="M18.3335 10C18.3335 11.0944 18.118 12.1781 17.6991 13.1892C17.2803 14.2003 16.6665 15.119 15.8926 15.8929C15.1188 16.6667 14.2001 17.2806 13.189 17.6994C12.1779 18.1182 11.0942 18.3338 9.99977 18.3338C8.90536 18.3338 7.82167 18.1182 6.81058 17.6994C5.79948 17.2806 4.88077 16.6667 4.10691 15.8929C3.33305 15.119 2.71919 14.2003 2.30038 13.1892C1.88157 12.1781 1.66602 11.0944 1.66602 10C1.66602 7.78976 2.54403 5.67004 4.10691 4.10716C5.6698 2.54428 7.78952 1.66626 9.99977 1.66626C12.21 1.66626 14.3297 2.54428 15.8926 4.10716C17.4555 5.67004 18.3335 7.78976 18.3335 10Z" stroke="#525252" stroke-width="1.2"/>
</svg>
